<svg width="180" height="100" fill="none" xmlns="http://www.w3.org/2000/svg"><path d="M136.151 96.954c-1.041.079-1.938.063-2.143-.028-.167-.076.193-.438.642-.793.52-.412.046-.834-.205-1.048-.841-.719-1.64-1.5-2.393-2.332-.186-.205-.622-.622-1.457-.609-1.324.023-2.999.078-3.21-.018-.154-.069.729-.776 1.591-1.44.748-.579.446-1.322.23-1.663a30.188 30.188 0 01-1.879-3.454c-.117-.25-.47-.725-1.271-.738-1.257-.018-2.686.064-2.881-.023-.153-.071.955-1.075 2.072-1.965.258-.206.667-.683.421-1.651-.351-1.395-.741-2.803-.981-4.266-.058-.357-.371-1.076-1.205-1.055-1.141.033-2.294.046-2.468-.032-.151-.069.99-1.05 2.244-1.948.34-.238.874-.415.974-1.668.028-.355-.023-.712-.023-1.071 0-1.207.044-2.397.188-3.563.135-1.082-.544-1.301-.918-1.283-1.15.056-2.316.111-2.486.033-.167-.076 1.494-1.225 3.1-2.173.323-.187.875-.551 1.177-1.528.419-1.35.774-2.7 1.297-3.974.472-1.151-.493-1.343-.981-1.334-1.238.022-2.246.085-2.444-.002-.186-.085 1.938-1.26 3.917-2.05.46-.186 1.299-.543 2.087-1.752.595-.91 1.25-1.77 1.865-2.637.607-.853-.062-.966-.464-.966-1.524 0-2.851.113-3.081.006-.214-.093 3.157-1.34 5.183-1.831.442-.108 1.057-.264 1.868-.904.69-.547 1.343-1.133 2.066-1.62.641-.433.12-.522-.172-.526-1.682-.023-3.213.118-3.464.004-.242-.11 4.295-.897 6.08-1.015 1.568-.857 4.242-1.557 5.973-2.037-.448 0-.827.002-.973.013h-10.07c-.567.07-2.99-.03-3.429 0-1.141.119-1.928.23-3.022.652-.721.279-.955 1.169-.465 1.359.543.21 2.614.899 2.36 1.021-.209.1-2.946 0-4.663-.113-.683-.047-1.631-.105-2.03.174-1.018.71-.702.555-1.65 1.472-.376.364-.471 1.15.072 1.395.523.232 3.058 1.858 2.719 2.021-.291.14-3.825.38-4.689.301-.855-.076-1.306-.029-1.64.429-.829 1.135-.918 1.537-1.603 2.869-.272.526-.249 1.472.165 1.675.413.201 2.365 1.094 3.554 2.046-1.342-.105-3.94.42-4.521.42s-1.043.029-1.247.618c-.523 1.495-.618 2.061-.953 3.639-.13.631.107 1.272.616 1.55.509.28 4.358 2.785 3.966 2.765-.653-.036-4.024.734-4.533.743-.509.009-.841.39-.897 1.033-.104 1.202-.056 1.202-.056 2.432.003.441.01.883.024 1.318.021.64.618 1.337 1.175 1.589.762.348 4.672 2.193 4.324 2.362-.288.139-3.824.558-4.187.57-.822.024-.922.814-.827 1.459.242 1.617.26 1.918.697 3.465.128.464.553.883.99 1.024.437.14 5.964 2.307 5.613 2.476-.29.14-3.603.748-4.126.77-.695.036-.623.984-.305 1.673.639 1.388.34.964 1.109 2.2.158.261.869.674 1.089.718.437.094 6.724 1.79 6.373 1.957-.29.14-3.65.297-4.272.33-.623.034-.542.928-.186 1.337.903 1.033.69.859 1.668 1.675.555.464 1.849.427 1.935.489 1.294.196 6.738.89 6.408 1.05-.291.141-2.298.353-4.212.572-.607-.027-.119.783.316.988a14.9 14.9 0 003.334 1.16.607.607 0 00.123.014c.404 0 2.936.232 3.382.232.574 0 8.346.04 12.149.058-2.216-.616-5.174-1.553-7.223-2.764-.172-.1-.613-.33-1.231-.282z" fill="#fff" fill-opacity=".9"/><path d="M163.917 68.319c-.041-.659-.389-1.13-.882-1.087-.012.002-.023.027-.037.03-.071-.804-.158-1.6-.282-2.383.014-.003.023 0 .032-.005.431-.171.69-.83.573-1.467a38.814 38.814 0 00-1.164-4.683c-.184-.604-1.165-.854-1.165-.854s-.463-1.107-.754-1.785c.009-.011.023-.007.032-.016.367-.377.461-1.122.204-1.664a29.602 29.602 0 00-2.164-3.834c-.314-.469-1.497-.42-1.506-.402-.108-.174-.481-.636-.915-1.138.012-.02.025-.008.035-.029.263-.537.176-1.287-.186-1.67a20.157 20.157 0 00-2.914-2.537c-.408-.283-2.178-.031-2.178-.031l-.451-.223c.007-.018.018-.022.02-.036.124-.636-.128-1.298-.557-1.479a14.139 14.139 0 00-3.328-.93c-.328-.063-1.5-.091-2.389-.096a22.86 22.86 0 00-4.975 2.376c1.522.176-1.919 2.532-1.655 1.15a24.77 24.77 0 00-2.836 2.52c1.458.136-1.254 3.482-1.698 1.931a28.993 28.993 0 00-3.063 4.767c1.325-.386-.273 3.857-1.208 2.662a33.632 33.632 0 00-1.752 5.927c1.234-.442.651 3.424-.461 2.869a41.137 41.137 0 00-.279 5.998c1.199-.49 1.781 3.045.185 3.076.214 2.13.59 4.147 1.108 6.041.729-.698 2.62 2.37.924 2.856a29.774 29.774 0 002.26 4.731c.449-.836 2.728 1.898 1.428 2.173a26.354 26.354 0 003.329 3.774c.199-.796 2.574.948 1.644 1.412a24.402 24.402 0 006.671 3.728l1.992.009c1.208-.042 1.792-.174 2.295-.314.44-.126 1.315-1.453 1.315-1.453s1.587-.073 1.915-.073a.6.6 0 00.293-.08 18.39 18.39 0 003.038-2.187c.385-.337.509-1.073.277-1.64-.007-.013-.018-.013-.021-.026.457-.444.548-.553.984-1.053.004.013.743.09.972.09.186 0 .378-.097.527-.29a26.588 26.588 0 002.368-3.568c.282-.51.236-1.26-.11-1.682-.014-.016-.03-.007-.041-.02.328-.647.566-1.08.862-1.771.009.01.364-.032.502-.032.282 0 .55-.218.704-.604a36.707 36.707 0 001.414-4.528c.151-.623-.071-1.308-.493-1.533-.007-.002-.013.004-.02.002.162-.767.293-1.55.41-2.342.011.002.014.02.023.022a.62.62 0 00.14.016c.392 0 .733-.413.802-.993a43.132 43.132 0 00.206-7.622zm-18.252 21.114c-6.247 0-11.311-8.252-11.311-18.426 0-10.18 5.064-18.429 11.311-18.429 6.249 0 11.309 8.25 11.309 18.429 0 10.172-5.06 18.426-11.309 18.426zM6.84 29V11.96H.12V8h18.3v3.96H11.7V29H6.84zm13.513 0V12.86h4.47v4.56l-.63-1.32c.48-1.14 1.25-2 2.31-2.58 1.06-.6 2.35-.9 3.87-.9v4.32c-.2-.02-.38-.03-.54-.03-.16-.02-.33-.03-.51-.03-1.28 0-2.32.37-3.12 1.11-.78.72-1.17 1.85-1.17 3.39V29h-4.68zm19.73.24c-1.34 0-2.54-.26-3.6-.78-1.04-.52-1.85-1.31-2.43-2.37-.58-1.08-.87-2.45-.87-4.11v-9.12h4.68v8.43c0 1.34.28 2.33.84 2.97.58.62 1.39.93 2.43.93.72 0 1.36-.15 1.92-.45.56-.32 1-.8 1.32-1.44.32-.66.48-1.48.48-2.46v-7.98h4.68V29h-4.44v-4.44l.81 1.29c-.54 1.12-1.34 1.97-2.4 2.55-1.04.56-2.18.84-3.42.84zm21.586 0c-1.74 0-3.29-.35-4.65-1.05-1.36-.72-2.43-1.71-3.21-2.97-.76-1.26-1.14-2.69-1.14-4.29 0-1.62.38-3.05 1.14-4.29.78-1.26 1.85-2.24 3.21-2.94 1.36-.72 2.91-1.08 4.65-1.08 1.7 0 3.18.36 4.44 1.08 1.26.7 2.19 1.71 2.79 3.03l-3.63 1.95c-.42-.76-.95-1.32-1.59-1.68a3.99 3.99 0 00-2.04-.54c-.8 0-1.52.18-2.16.54-.64.36-1.15.87-1.53 1.53-.36.66-.54 1.46-.54 2.4s.18 1.74.54 2.4c.38.66.89 1.17 1.53 1.53.64.36 1.36.54 2.16.54.74 0 1.42-.17 2.04-.51.64-.36 1.17-.93 1.59-1.71l3.63 1.98c-.6 1.3-1.53 2.31-2.79 3.03-1.26.7-2.74 1.05-4.44 1.05zm13.707-3.54l.12-5.7 7.53-7.14h5.58l-7.23 7.35-2.43 1.98-3.57 3.51zm-3.87 3.3V6.74h4.68V29h-4.68zm12.03 0l-5.46-6.78 2.94-3.63L89.206 29h-5.67zm16.6 0V8h9.09c1.88 0 3.5.31 4.86.93 1.36.6 2.41 1.47 3.15 2.61.74 1.14 1.11 2.5 1.11 4.08 0 1.56-.37 2.91-1.11 4.05-.74 1.12-1.79 1.98-3.15 2.58-1.36.6-2.98.9-4.86.9h-6.39l2.16-2.13V29h-4.86zm13.35 0l-5.25-7.62h5.19l5.31 7.62h-5.25zm-8.49-7.44l-2.16-2.28h6.12c1.5 0 2.62-.32 3.36-.96.74-.66 1.11-1.56 1.11-2.7 0-1.16-.37-2.06-1.11-2.7-.74-.64-1.86-.96-3.36-.96h-6.12l2.16-2.31v11.91zm24.881 7.68c-1.84 0-3.46-.36-4.86-1.08-1.38-.72-2.45-1.7-3.21-2.94-.76-1.26-1.14-2.69-1.14-4.29 0-1.62.37-3.05 1.11-4.29a7.94 7.94 0 013.09-2.94c1.3-.72 2.77-1.08 4.41-1.08 1.58 0 3 .34 4.26 1.02a7.37 7.37 0 013.03 2.88c.74 1.24 1.11 2.73 1.11 4.47 0 .18-.01.39-.03.63l-.06.63h-13.11v-2.73h10.65l-1.8.81c0-.84-.17-1.57-.51-2.19-.34-.62-.81-1.1-1.41-1.44-.6-.36-1.3-.54-2.1-.54s-1.51.18-2.13.54c-.6.34-1.07.83-1.41 1.47-.34.62-.51 1.36-.51 2.22v.72c0 .88.19 1.66.57 2.34.4.66.95 1.17 1.65 1.53.72.34 1.56.51 2.52.51.86 0 1.61-.13 2.25-.39.66-.26 1.26-.65 1.8-1.17l2.49 2.7c-.74.84-1.67 1.49-2.79 1.95-1.12.44-2.41.66-3.87.66zm20.726-16.62c1.28 0 2.42.26 3.42.78 1.02.5 1.82 1.28 2.4 2.34.58 1.04.87 2.38.87 4.02V29h-4.68v-8.52c0-1.3-.29-2.26-.87-2.88-.56-.62-1.36-.93-2.4-.93-.74 0-1.41.16-2.01.48-.58.3-1.04.77-1.38 1.41-.32.64-.48 1.46-.48 2.46V29h-4.68V12.86h4.47v4.47l-.84-1.35a5.978 5.978 0 012.49-2.49c1.08-.58 2.31-.87 3.69-.87zm17.532 16.62c-1.9 0-3.38-.48-4.44-1.44-1.06-.98-1.59-2.43-1.59-4.35V9.29h4.68v14.1c0 .68.18 1.21.54 1.59.36.36.85.54 1.47.54.74 0 1.37-.2 1.89-.6l1.26 3.3c-.48.34-1.06.6-1.74.78-.66.16-1.35.24-2.07.24zm-8.52-12.42v-3.6h11.19v3.6h-11.19zM12.63 66.36c-1.66 0-3.19-.26-4.59-.78a11.17 11.17 0 01-3.63-2.28c-1.02-.98-1.82-2.13-2.4-3.45-.56-1.32-.84-2.77-.84-4.35 0-1.58.28-3.03.84-4.35.58-1.32 1.39-2.47 2.43-3.45 1.04-.98 2.26-1.73 3.66-2.25 1.4-.54 2.94-.81 4.62-.81 1.86 0 3.53.31 5.01.93 1.5.62 2.76 1.52 3.78 2.7l-3.12 2.88c-.76-.8-1.59-1.39-2.49-1.77-.9-.4-1.88-.6-2.94-.6-1.02 0-1.95.16-2.79.48-.84.32-1.57.78-2.19 1.38-.6.6-1.07 1.31-1.41 2.13-.32.82-.48 1.73-.48 2.73 0 .98.16 1.88.48 2.7.34.82.81 1.54 1.41 2.16.62.6 1.34 1.06 2.16 1.38.84.32 1.76.48 2.76.48.96 0 1.89-.15 2.79-.45.92-.32 1.81-.85 2.67-1.59l2.76 3.51c-1.14.86-2.47 1.52-3.99 1.98-1.5.46-3 .69-4.5.69zm4.05-3.3v-7.89h4.44v8.52l-4.44-.63zM25.305 66V49.86h4.47v4.56l-.63-1.32c.48-1.14 1.25-2 2.31-2.58 1.06-.6 2.35-.9 3.87-.9v4.32c-.2-.02-.38-.03-.54-.03-.16-.02-.33-.03-.51-.03-1.28 0-2.32.37-3.12 1.11-.78.72-1.17 1.85-1.17 3.39V66h-4.68zm20.365.24c-1.72 0-3.25-.36-4.59-1.08a8.407 8.407 0 01-3.15-2.94c-.76-1.26-1.14-2.69-1.14-4.29 0-1.62.38-3.05 1.14-4.29a8.102 8.102 0 013.15-2.94c1.34-.72 2.87-1.08 4.59-1.08 1.7 0 3.22.36 4.56 1.08 1.34.7 2.39 1.67 3.15 2.91.76 1.24 1.14 2.68 1.14 4.32 0 1.6-.38 3.03-1.14 4.29-.76 1.24-1.81 2.22-3.15 2.94-1.34.72-2.86 1.08-4.56 1.08zm0-3.84c.78 0 1.48-.18 2.1-.54a3.87 3.87 0 001.47-1.53c.36-.68.54-1.48.54-2.4 0-.94-.18-1.74-.54-2.4A3.87 3.87 0 0047.77 54c-.62-.36-1.32-.54-2.1-.54s-1.48.18-2.1.54c-.62.36-1.12.87-1.5 1.53-.36.66-.54 1.46-.54 2.4 0 .92.18 1.72.54 2.4.38.66.88 1.17 1.5 1.53.62.36 1.32.54 2.1.54zm18.788 3.84c-1.34 0-2.54-.26-3.6-.78-1.04-.52-1.85-1.31-2.43-2.37-.58-1.08-.87-2.45-.87-4.11v-9.12h4.68v8.43c0 1.34.28 2.33.84 2.97.58.62 1.39.93 2.43.93.72 0 1.36-.15 1.92-.45.56-.32 1-.8 1.32-1.44.32-.66.48-1.48.48-2.46v-7.98h4.68V66h-4.44v-4.44l.81 1.29c-.54 1.12-1.34 1.97-2.4 2.55-1.04.56-2.18.84-3.42.84zm23.326 0c-1.36 0-2.55-.3-3.57-.9-1.02-.6-1.82-1.51-2.4-2.73-.56-1.24-.84-2.8-.84-4.68 0-1.9.27-3.46.81-4.68.54-1.22 1.32-2.13 2.34-2.73 1.02-.6 2.24-.9 3.66-.9 1.52 0 2.88.35 4.08 1.05 1.22.68 2.18 1.64 2.88 2.88.72 1.24 1.08 2.7 1.08 4.38 0 1.7-.36 3.17-1.08 4.41-.7 1.24-1.66 2.2-2.88 2.88-1.2.68-2.56 1.02-4.08 1.02zm-9.54 5.58V49.86h4.47v3.3l-.09 4.8.3 4.77v9.09h-4.68zm8.73-9.42c.78 0 1.47-.18 2.07-.54a3.87 3.87 0 001.47-1.53c.38-.68.57-1.48.57-2.4 0-.94-.19-1.74-.57-2.4a3.87 3.87 0 00-1.47-1.53c-.6-.36-1.29-.54-2.07-.54-.78 0-1.48.18-2.1.54-.62.36-1.11.87-1.47 1.53-.36.66-.54 1.46-.54 2.4 0 .92.18 1.72.54 2.4.36.66.85 1.17 1.47 1.53.62.36 1.32.54 2.1.54z" fill="#fff" fill-opacity=".9"/></svg>